<svg width="181" height="17" viewBox="0 0 181 17" fill="none" xmlns="http://www.w3.org/2000/svg">
<path d="M181 16.7893C174.967 16.7893 172.002 12.8807 169.143 9.10332C166.441 5.56202 163.897 2.20433 158.86 2.20433C153.824 2.20433 151.279 5.56202 148.577 9.12955C145.718 12.9069 142.754 16.8155 136.747 16.8155C130.74 16.8155 127.775 12.9069 124.916 9.12955C122.214 5.56202 119.67 2.20433 114.633 2.20433C109.597 2.20433 107.052 5.56202 104.35 9.10332C101.491 12.8807 98.5268 16.7893 92.4935 16.7893C86.4602 16.7893 83.4697 12.8807 80.6105 9.10332C77.9348 5.56202 75.3903 2.20433 70.3276 2.20433C69.8292 2.20433 69.3045 2.23057 68.8061 2.30926C66.9961 2.57158 65.291 3.411 63.7696 4.77506C62.3793 6.00796 61.2251 7.55564 60.0971 9.02462L59.861 9.31318C58.838 10.651 57.9986 11.7003 57.0805 12.6709C55.7689 14.0349 54.431 15.0317 53.0408 15.7138C50.9422 16.7368 49.0273 17.0253 47.296 16.5532C46.2992 16.2909 45.381 15.7662 44.5941 15.0842C43.7809 14.3497 43.2825 13.4316 42.8366 12.6184C42.3644 11.7265 41.9709 10.8609 41.6299 9.9952L41.1315 8.73607C40.6331 7.47694 40.1609 6.27028 39.5576 5.1423C38.4821 3.12245 37.4066 2.20433 36.1474 2.20433C33.7866 2.20433 32.4487 5.45709 31.0322 8.89346C29.4321 12.7758 27.7795 16.8155 24.107 16.8155C20.4345 16.8155 18.7557 12.802 17.1555 8.89346C15.739 5.45709 14.4274 2.20433 12.0666 2.20433C9.70569 2.20433 8.36786 5.45709 6.95134 8.89346C5.3512 12.7758 3.69859 16.8155 0.026123 16.8155V14.8481C2.38699 14.8481 3.72482 11.5953 5.14134 8.15897C6.74149 4.27665 8.39409 0.236943 12.0666 0.236943C15.739 0.236943 17.3916 4.25042 18.9655 8.15897C20.3821 11.5953 21.6937 14.8481 24.0545 14.8481C26.4154 14.8481 27.8057 11.5953 29.2222 8.15897C30.8224 4.27665 32.475 0.236943 36.1474 0.236943C39.1641 0.236943 40.7642 3.22738 41.2889 4.22419C41.9447 5.45709 42.4693 6.76868 42.9677 8.02781L43.4661 9.26071C43.7809 10.0739 44.1481 10.8609 44.5679 11.6216C45.0138 12.4348 45.381 13.1168 45.9319 13.6152C46.4828 14.1136 47.1386 14.4546 47.8206 14.6382C49.0535 14.9793 50.5225 14.7432 52.2013 13.93C53.3818 13.3529 54.536 12.4872 55.6902 11.2806C56.5558 10.3625 57.3428 9.39187 58.2609 8.1852L58.5494 7.79173C59.7299 6.21781 60.9628 4.61767 62.4842 3.25361C64.268 1.65346 66.3666 0.630421 68.5438 0.315638C69.1471 0.236943 69.7505 0.184479 70.3276 0.184479C76.3609 0.184479 79.2989 4.09303 82.1581 7.87042C84.8338 11.4117 87.3783 14.7694 92.4148 14.7694C97.4513 14.7694 100.048 11.4117 102.75 7.87042C105.609 4.09303 108.574 0.184479 114.607 0.184479C120.64 0.184479 123.605 4.09303 126.464 7.87042C129.166 11.4117 131.71 14.7694 136.747 14.7956C141.783 14.7956 144.328 11.438 147.003 7.87042C149.863 4.09303 152.827 0.184479 158.86 0.184479C164.894 0.184479 167.858 4.09303 170.717 7.87042C173.419 11.4117 175.963 14.7956 181 14.7956V16.763V16.7893Z" fill="#F75400"/>
</svg>
